<svg id="visual" viewBox="0 0 960 540" width="960" height="540" xmlns="http://www.w3.org/2000/svg" xmlns:xlink="http://www.w3.org/1999/xlink" version="1.1"><rect x="0" y="0" width="960" height="540" fill="#FA7268"></rect><path d="M0 141L22.8 145.5C45.7 150 91.3 159 137 153.5C182.7 148 228.3 128 274 123.8C319.7 119.7 365.3 131.3 411.2 136.2C457 141 503 139 548.8 141C594.7 143 640.3 149 686 153.8C731.7 158.7 777.3 162.3 823 165.3C868.7 168.3 914.3 170.7 937.2 171.8L960 173L960 0L937.2 0C914.3 0 868.7 0 823 0C777.3 0 731.7 0 686 0C640.3 0 594.7 0 548.8 0C503 0 457 0 411.2 0C365.3 0 319.7 0 274 0C228.3 0 182.7 0 137 0C91.3 0 45.7 0 22.8 0L0 0Z" fill="#fa7268"></path><path d="M0 117L22.8 119.8C45.7 122.7 91.3 128.3 137 128.5C182.7 128.7 228.3 123.3 274 115.8C319.7 108.3 365.3 98.7 411.2 98.7C457 98.7 503 108.3 548.8 116.8C594.7 125.3 640.3 132.7 686 132.5C731.7 132.3 777.3 124.7 823 125.3C868.7 126 914.3 135 937.2 139.5L960 144L960 0L937.2 0C914.3 0 868.7 0 823 0C777.3 0 731.7 0 686 0C640.3 0 594.7 0 548.8 0C503 0 457 0 411.2 0C365.3 0 319.7 0 274 0C228.3 0 182.7 0 137 0C91.3 0 45.7 0 22.8 0L0 0Z" fill="#ef5f67"></path><path d="M0 102L22.8 103.8C45.7 105.7 91.3 109.3 137 104.3C182.7 99.3 228.3 85.7 274 83.3C319.7 81 365.3 90 411.2 91.7C457 93.3 503 87.7 548.8 84.7C594.7 81.7 640.3 81.3 686 79.3C731.7 77.3 777.3 73.7 823 70.7C868.7 67.7 914.3 65.3 937.2 64.2L960 63L960 0L937.2 0C914.3 0 868.7 0 823 0C777.3 0 731.7 0 686 0C640.3 0 594.7 0 548.8 0C503 0 457 0 411.2 0C365.3 0 319.7 0 274 0C228.3 0 182.7 0 137 0C91.3 0 45.7 0 22.8 0L0 0Z" fill="#e34c67"></path><path d="M0 49L22.8 50.2C45.7 51.3 91.3 53.7 137 53.8C182.7 54 228.3 52 274 54.2C319.7 56.3 365.3 62.7 411.2 67.3C457 72 503 75 548.8 70.8C594.7 66.7 640.3 55.3 686 55.7C731.7 56 777.3 68 823 74.2C868.7 80.3 914.3 80.7 937.2 80.8L960 81L960 0L937.2 0C914.3 0 868.7 0 823 0C777.3 0 731.7 0 686 0C640.3 0 594.7 0 548.8 0C503 0 457 0 411.2 0C365.3 0 319.7 0 274 0C228.3 0 182.7 0 137 0C91.3 0 45.7 0 22.8 0L0 0Z" fill="#d53867"></path><path d="M0 44L22.8 39.7C45.7 35.3 91.3 26.7 137 28.2C182.7 29.7 228.3 41.3 274 44.8C319.7 48.3 365.3 43.7 411.2 41.5C457 39.3 503 39.7 548.8 37C594.7 34.3 640.3 28.7 686 28.5C731.7 28.3 777.3 33.7 823 33.5C868.7 33.3 914.3 27.7 937.2 24.8L960 22L960 0L937.2 0C914.3 0 868.7 0 823 0C777.3 0 731.7 0 686 0C640.3 0 594.7 0 548.8 0C503 0 457 0 411.2 0C365.3 0 319.7 0 274 0C228.3 0 182.7 0 137 0C91.3 0 45.7 0 22.8 0L0 0Z" fill="#c62368"></path></svg>